<?xml version="1.0" encoding="utf-8"?>
<!DOCTYPE svg PUBLIC "-//W3C//DTD SVG 1.0//EN" "http://www.w3.org/TR/2001/REC-SVG-20010904/DTD/svg10.dtd">
<svg version="1.0" xmlns="http://www.w3.org/2000/svg" width="512px" height="512px" viewBox="0 0 512 512" preserveAspectRatio="xMidYMid meet">
 <g>
  <path fill="#e34c26" d="M241.2 482.6 c-13.2 -5 -16.1 -7.9 -38.1 -37.3 -16.2 -21.7 -18.4 -24.3 -21.3 -24.7 -1.8 -0.3 -12.7 -0.7 -24.3 -1 -20.5 -0.5 -35.9 -2.2 -48 -5.2 -41.8 -10.7 -65.7 -35.1 -76 -77.7 -5.8 -23.7 -6 -27.4 -6 -111.7 0 -76.5 0 -77.7 2.3 -90.2 5.7 -31.4 16.4 -53.9 34.1 -71.6 14.6 -14.5 33.3 -24.8 56.1 -30.7 23.1 -6 41.2 -6.7 155.5 -6.2 90.9 0.3 94.3 0.4 103.6 2.4 25.7 5.6 52.8 19 67.7 33.3 13.2 12.7 27 37.5 33.1 59.3 4.8 16.8 5.1 22.9 5.1 95.2 0 70.2 -0.6 84.6 -4.1 102 -8.7 43.4 -32.7 74.2 -69.8 89.5 -18.1 7.4 -35.9 10.8 -61.1 11.6 -10.2 0.3 -19.5 0.7 -20.7 1 -1.5 0.3 -8.6 8.8 -21.7 26.2 -20.7 27.3 -23.9 30.5 -34.8 35 -9.2 3.8 -22.9 4.1 -31.6 0.8z m21.8 -30.1 c1.8 -1 10.4 -11.5 22.5 -27.4 10.7 -14.3 20.8 -26.9 22.4 -28.1 1.7 -1.1 5.6 -3.3 8.8 -4.7 5.5 -2.5 6.9 -2.7 26.8 -3.4 11.8 -0.4 25.2 -1.4 30.5 -2.4 37.5 -6.6 61.4 -25.9 72.6 -58.7 6.5 -19.3 7.4 -32.1 7.4 -110.9 0 -54.9 -0.3 -68.2 -1.5 -75.5 -2.9 -17.1 -9.7 -33.5 -19.9 -48.3 -10.4 -15.2 -33.3 -28.2 -59.1 -33.6 -7.2 -1.6 -18.1 -1.7 -114.9 -1.5 -113.6 0.1 -115.8 0.2 -133.6 5.1 -10.7 2.9 -26.4 10.8 -34.3 17.4 -14.5 12 -24.4 30 -29.2 53.3 -3.2 15.5 -3.7 30.2 -3.2 100.4 0.3 58.5 0.7 71 2.1 80.1 7.3 46.9 26.2 66.2 71.2 72.7 4.3 0.6 18.9 1.5 32.4 1.9 36.6 1.2 35.7 0.7 62.7 36.5 10.4 13.7 20.2 25.8 21.8 26.8 3.7 2.2 10.5 2.3 14.5 0.3z"/>
  <path fill="#e34c26" d="M228.5 292.6 c-5.5 -2.5 -9.5 -8.5 -9.5 -14.4 0 -2.2 39.6 -96.5 45.1 -107.3 5.4 -10.8 22.1 -10.5 27.3 0.4 0.9 1.9 1.6 4.9 1.6 6.7 0 3.9 -44.2 107.5 -47.3 110.9 -4.4 4.8 -11.4 6.3 -17.2 3.7z"/>
 </g>
 <g>
  <path fill="#0078d4" d="M165 285.4 c-3.8 -1.7 -46.8 -43.8 -50.1 -49.2 -2.3 -3.6 -2.7 -10.7 -0.9 -14.4 1.7 -3.2 46.9 -48.6 50.2 -50.4 3.8 -2 10.7 -1.8 14.5 0.6 6 3.6 9 10.8 7.2 17.4 -0.9 3.3 -4.4 7.4 -18.5 21.6 l-17.4 17.6 16.6 16.4 c9.1 9.1 17.3 17.9 18.1 19.5 3.9 7.3 0.5 17.1 -7.1 20.6 -4.9 2.2 -8 2.3 -12.6 0.3z"/>
  <path fill="#41a94a" d="M334.4 285.1 c-7.6 -3.5 -11 -13.3 -7.1 -20.6 0.8 -1.6 9 -10.4 18.1 -19.5 l16.6 -16.4 -17.4 -17.6 c-14.1 -14.2 -17.6 -18.3 -18.5 -21.6 -1.8 -6.6 1.2 -13.8 7.2 -17.4 3.8 -2.4 10.7 -2.6 14.5 -0.6 3.3 1.8 48.5 47.2 50.2 50.4 1.8 3.7 1.4 10.8 -0.9 14.4 -1.1 1.8 -12 13.3 -24.3 25.5 -26.4 26.3 -28.8 27.7 -38.4 23.4z"/>
 </g>
</svg>
